<svg width="125" height="22" viewBox="0 0 125 22" fill="none" xmlns="http://www.w3.org/2000/svg">
<g id="Mailmind / logo" clip-path="url(#clip0_529_24460)">
<g id="Group">
<g id="Group_2">
<path id="Vector" d="M20.5086 3.74949C18.7883 1.77961 16.4204 0.497255 13.8429 0.136371C13.6617 0.110696 13.4792 0.164898 13.3408 0.286143C13.2024 0.405963 13.1226 0.579987 13.1226 0.763995C13.1226 1.07638 13.3522 1.34455 13.6575 1.38734C15.9383 1.70401 18.0323 2.83659 19.5543 4.57825C21.0848 6.32846 21.9278 8.57507 21.9278 10.9016C21.9278 13.2295 21.0806 15.4775 19.5429 17.2306C18.0195 18.9665 15.9283 20.0977 13.6575 20.4158C13.3522 20.4586 13.1226 20.7268 13.1226 21.0391C13.1226 21.2217 13.2024 21.3957 13.3408 21.517C13.4563 21.6183 13.6047 21.6725 13.7545 21.6725C13.783 21.6725 13.8129 21.671 13.8429 21.6668C16.4105 21.3059 18.774 20.025 20.4957 18.0608C22.2345 16.078 23.1917 13.5362 23.1917 10.903C23.1917 8.26982 22.2388 5.73079 20.5086 3.74949Z" fill="url(#paint0_linear_529_24460)"/>
<path id="Vector_2" d="M13.6773 4.63099C15.67 4.88489 17.4117 6.14156 18.3374 7.99163C18.4487 8.21415 18.6727 8.34396 18.9052 8.34396C18.9893 8.34396 19.0749 8.32685 19.1562 8.29119L19.1676 8.2869C19.3274 8.21701 19.4486 8.08721 19.5085 7.92317C19.5684 7.75913 19.5585 7.5851 19.4829 7.42962C18.3688 5.1716 16.2563 3.64106 13.8314 3.33437C13.6545 3.31155 13.4762 3.36718 13.3421 3.48557C13.2052 3.60682 13.1267 3.77942 13.1267 3.962V4.00765C13.1239 4.32288 13.3607 4.59105 13.6773 4.63099Z" fill="url(#paint1_linear_529_24460)"/>
<path id="Vector_3" d="M14.044 7.70914C15.2893 8.28969 16.0895 9.53781 16.0895 10.91C16.0895 12.4648 15.0468 13.8584 13.5548 14.2992C13.2966 14.3748 13.1226 14.6073 13.1226 14.8755C13.1226 15.068 13.211 15.2449 13.3651 15.3605C13.472 15.4403 13.5976 15.4817 13.7274 15.4817C13.7859 15.4817 13.8443 15.4731 13.9028 15.456C14.8628 15.1707 15.7258 14.5716 16.3349 13.77C16.9639 12.9412 17.2963 11.9513 17.2963 10.91C17.2963 9.93008 16.9982 8.98864 16.4333 8.18841C15.8913 7.41957 15.1438 6.83474 14.2694 6.49383C14.094 6.07304 13.6803 5.79346 13.2253 5.79346C12.5991 5.79346 12.0898 6.30269 12.0898 6.92889C12.0898 7.55508 12.5991 8.06432 13.2253 8.06432C13.5348 8.06432 13.8286 7.93594 14.044 7.70914Z" fill="url(#paint2_linear_529_24460)"/>
<path id="Vector_4" d="M10.7975 0.0693359H8.92457C6.80205 0.0693359 4.95199 1.5357 4.3643 2.97067C2.76528 3.3715 1.69547 4.93628 1.69547 6.88335C1.69547 6.91187 1.69547 6.94183 1.6969 6.97036C0.685563 7.70069 0.060791 9.15421 0.060791 10.7846C0.060791 11.9058 0.444498 13.0754 1.06356 13.8514C0.916643 14.9483 1.07783 16.6172 2.01641 17.7826C2.47287 18.3475 3.30162 19.0094 4.68667 19.0094C4.70664 19.0094 4.72661 19.0094 4.74658 19.0094C5.64523 20.9379 7.11872 21.875 9.24837 21.875H10.6719C11.1583 21.875 11.5535 21.4499 11.5535 20.9279V10.5107C11.5535 9.78611 11.2183 9.11712 10.6548 8.722L10.4851 8.60218V8.62786C10.1171 8.40962 9.73763 8.29978 9.35535 8.29978C8.66068 8.30121 7.99312 8.66067 7.37262 9.37103C6.86339 9.95301 5.91197 10.1912 5.2658 9.90878C5.14028 9.07718 4.54974 8.39963 3.74666 8.17569C3.59974 8.13432 3.44141 8.15999 3.31018 8.24415C3.17609 8.32974 3.0848 8.47095 3.05913 8.62929C3.01205 8.92598 3.18323 9.20556 3.45567 9.27973C3.91641 9.40526 4.22594 9.80323 4.22594 10.2697C4.22594 10.6462 4.03908 11.0485 3.74951 11.2924C3.56408 11.4493 3.4842 11.7046 3.55124 11.9286C3.60545 12.1112 3.74238 12.2524 3.91498 12.3066C4.07902 12.3565 4.24876 12.3237 4.38285 12.2139C4.7366 11.9272 5.0176 11.5149 5.1631 11.0727C5.38705 11.1341 5.62526 11.1655 5.86918 11.1655C6.74357 11.1655 7.59657 10.7875 8.15002 10.1527C8.56083 9.68198 8.96736 9.44378 9.35677 9.44378C9.61781 9.44378 9.89025 9.55218 10.1698 9.76614C10.3667 9.91734 10.4836 10.1655 10.4836 10.4309V15.6259C10.3938 15.6159 10.3053 15.6102 10.2198 15.6102C9.47231 15.6102 8.77765 16.0124 8.31264 16.7157C8.21992 16.8555 8.18854 17.0309 8.2242 17.1992C8.257 17.3519 8.34402 17.4788 8.46669 17.5544C8.7106 17.707 9.01729 17.6314 9.1799 17.3818C9.3311 17.1493 9.67059 16.7585 10.2369 16.7585C10.2383 16.7585 10.2397 16.7585 10.2412 16.7585C10.3752 16.7585 10.4836 16.8669 10.4836 16.9995V20.7624C10.4836 20.7938 10.4623 20.8238 10.4366 20.8252C7.93321 21.032 6.44545 20.2518 5.61385 18.2976C5.63524 17.456 5.87773 16.5473 6.26287 15.8612C6.7935 14.9198 7.56234 14.382 8.54942 14.2651C8.82472 14.2323 9.04296 14.0154 9.06721 13.7501C9.08433 13.5675 9.02156 13.3921 8.89461 13.268C8.78335 13.1582 8.63358 13.1054 8.48523 13.1211C7.35836 13.2438 6.36272 13.8186 5.67233 14.7429C5.27151 14.5889 4.94628 14.2009 4.82504 13.8799C4.7423 13.6588 4.55259 13.5176 4.34291 13.5176H4.29869C4.13465 13.5176 3.98487 13.5975 3.88502 13.7373C3.7809 13.8842 3.75379 14.0725 3.81228 14.2422C4.02481 14.8585 4.52406 15.429 5.09891 15.7243C4.80792 16.3719 4.62534 17.1051 4.564 17.8597C3.8294 17.834 3.24456 17.5544 2.82091 17.0309C2.11912 16.1594 1.95508 14.7315 2.15763 13.7715C2.19614 13.5861 2.14194 13.3978 2.01213 13.2652C1.48151 12.7231 1.1249 11.7246 1.1249 10.7818C1.1249 9.43521 1.66837 8.23559 2.47857 7.79911C2.6854 7.68785 2.8038 7.4639 2.77955 7.22997C2.76671 7.09589 2.75958 6.98462 2.75958 6.88049C2.75958 5.64949 3.34013 4.61676 4.25019 4.20596C4.48127 6.91615 6.04605 7.35406 7.39259 7.42966C7.66932 7.44535 7.91752 7.24994 7.97029 6.97749C8.0031 6.80489 7.96174 6.62802 7.85761 6.49394C7.76061 6.37126 7.61939 6.29566 7.46819 6.2871C6.10596 6.21293 5.31145 5.74221 5.29005 3.55979C5.61099 2.56985 7.04312 1.2119 8.92029 1.2119H10.4466C10.4651 1.2119 10.4822 1.23329 10.4822 1.25897V3.81084C10.4822 4.03621 10.3225 4.22593 10.1185 4.24304C9.44236 4.30153 8.84041 4.03051 8.50948 3.517C8.38253 3.32015 8.14432 3.22886 7.93035 3.29162C7.76489 3.34012 7.64222 3.45851 7.58231 3.62398C7.51384 3.81227 7.54237 4.03478 7.65506 4.20453C7.86759 4.52262 8.68636 5.55107 10.2768 5.39417C10.98 5.3257 11.552 4.65528 11.552 3.89928V0.87669C11.5535 0.433074 11.214 0.0693359 10.7975 0.0693359Z" fill="url(#paint3_linear_529_24460)"/>
<path id="Vector_5" d="M14.9698 16.7586C14.7673 16.6031 14.5233 16.5175 14.2737 16.5175C13.6404 16.5175 13.124 17.0324 13.124 17.6672C13.124 18.3005 13.639 18.8169 14.2737 18.8169C14.7815 18.8169 15.2251 18.4831 15.3706 17.9981C18.0109 16.9112 19.8239 14.3351 20.0079 11.4124C20.3246 11.1998 20.5129 10.8532 20.5129 10.4723C20.5129 9.84614 20.0036 9.33691 19.3775 9.33691C18.7513 9.33691 18.242 9.84614 18.242 10.4723C18.242 10.8489 18.426 11.1941 18.7384 11.4066C18.65 12.5863 18.2449 13.7117 17.563 14.6646C16.8969 15.596 16.0011 16.3192 14.9698 16.7586Z" fill="url(#paint4_linear_529_24460)"/>
</g>
<g id="Group_3">
<path id="Vector_6" d="M32.9113 17.8712H30.2083V6.45267H32.9113V7.96753C33.5175 6.87204 34.6359 6.1731 36.1735 6.1731C37.8054 6.1731 39.0164 6.96475 39.6455 8.29418C40.2973 7.19869 41.5326 6.1731 43.444 6.1731C46.0772 6.1731 47.592 8.0146 47.592 10.8575V17.8712H44.889V11.3695C44.889 9.69208 44.1201 8.64365 42.698 8.64365C41.253 8.64365 40.2745 9.83186 40.2517 11.6962V17.8712H37.5486V11.4623C37.5486 9.7149 36.7798 8.64222 35.3576 8.64222C33.8898 8.64222 32.9113 9.87751 32.9113 11.8117V17.8712Z" fill="#0B215E"/>
<path id="Vector_7" d="M61.4113 6.45271V17.8712H58.7553V16.2166C57.9166 17.4048 56.4716 18.1508 54.8869 18.1508C51.7416 18.1508 49.3181 15.5404 49.3181 12.1627C49.3181 8.78492 51.7416 6.17456 54.8869 6.17456C56.4716 6.17456 57.9166 6.82644 58.7553 8.01607V6.45414H61.4113V6.45271ZM55.4446 15.703C57.3788 15.703 58.8708 14.1411 58.8708 12.1613C58.8708 10.18 57.3788 8.61945 55.4446 8.61945C53.5104 8.61945 52.0198 10.1814 52.0198 12.1613C52.0198 14.1425 53.5104 15.703 55.4446 15.703Z" fill="#0B215E"/>
<path id="Vector_8" d="M65.3724 4.77377C64.4638 4.77377 63.7178 4.02775 63.7178 3.11912C63.7178 2.18767 64.4638 1.44165 65.3724 1.44165C66.3281 1.44165 67.0499 2.21049 67.0499 3.11912C67.0499 4.00493 66.3267 4.77377 65.3724 4.77377ZM64.043 17.8712V6.45267H66.7461V17.8712H64.043Z" fill="#0B215E"/>
<path id="Vector_9" d="M72.0595 1.55859V17.8711H69.3564V1.55859H72.0595Z" fill="#0B215E"/>
<path id="Vector_10" d="M77.3727 17.8712H74.6697V6.45267H77.3727V7.96753C77.979 6.87204 79.0973 6.1731 80.635 6.1731C82.2668 6.1731 83.4778 6.96475 84.1069 8.29418C84.7588 7.19869 85.994 6.1731 87.9054 6.1731C90.5386 6.1731 92.0535 8.0146 92.0535 10.8575V17.8712H89.3504V11.3695C89.3504 9.69208 88.5816 8.64365 87.1594 8.64365C85.7144 8.64365 84.7359 9.83186 84.7131 11.6962V17.8712H82.01V11.4623C82.01 9.7149 81.2412 8.64222 79.8191 8.64222C78.3513 8.64222 77.3727 9.87751 77.3727 11.8117V17.8712Z" fill="#0B215E"/>
<path id="Vector_11" d="M95.8507 4.77377C94.9421 4.77377 94.196 4.02775 94.196 3.11912C94.196 2.18767 94.9421 1.44165 95.8507 1.44165C96.8064 1.44165 97.5282 2.21049 97.5282 3.11912C97.5296 4.00493 96.8064 4.77377 95.8507 4.77377ZM94.5227 17.8712V6.45267H97.2258V17.8712H94.5227Z" fill="#0B215E"/>
<path id="Vector_12" d="M102.539 17.8712H99.8362V6.45267H102.539V7.96753C103.238 6.89629 104.426 6.1731 106.034 6.1731C108.807 6.1731 110.462 8.03742 110.462 10.9972V17.8712H107.759V11.5093C107.759 9.73772 106.85 8.66648 105.218 8.66648C103.61 8.66648 102.538 9.90176 102.538 11.8588V17.8712H102.539Z" fill="#0B215E"/>
<path id="Vector_13" d="M121.623 17.8711V16.2393C120.784 17.4047 119.34 18.1507 117.755 18.1507C114.61 18.1507 112.186 15.5646 112.186 12.1626C112.186 8.80767 114.61 6.17449 117.755 6.17449C119.34 6.17449 120.784 6.85062 121.623 8.016V1.55859H124.303V17.8711H121.623ZM118.315 15.703C120.25 15.703 121.742 14.1411 121.742 12.1612C121.742 10.1799 120.25 8.61938 118.315 8.61938C116.381 8.61938 114.891 10.1813 114.891 12.1612C114.889 14.1425 116.381 15.703 118.315 15.703Z" fill="#0B215E"/>
</g>
</g>
</g>
<defs>
<linearGradient id="paint0_linear_529_24460" x1="8.73542" y1="22.353" x2="18.3663" y2="6.96572" gradientUnits="userSpaceOnUse">
<stop stop-color="#5A0FEA"/>
<stop offset="1" stop-color="#F70685"/>
</linearGradient>
<linearGradient id="paint1_linear_529_24460" x1="6.76645" y1="21.1207" x2="16.3974" y2="5.73337" gradientUnits="userSpaceOnUse">
<stop stop-color="#5A0FEA"/>
<stop offset="1" stop-color="#F70685"/>
</linearGradient>
<linearGradient id="paint2_linear_529_24460" x1="7.20791" y1="21.3969" x2="16.8388" y2="6.00954" gradientUnits="userSpaceOnUse">
<stop stop-color="#5A0FEA"/>
<stop offset="1" stop-color="#F70685"/>
</linearGradient>
<linearGradient id="paint3_linear_529_24460" x1="3.17712" y1="18.8741" x2="12.808" y2="3.48681" gradientUnits="userSpaceOnUse">
<stop stop-color="#5A0FEA"/>
<stop offset="1" stop-color="#F70685"/>
</linearGradient>
<linearGradient id="paint4_linear_529_24460" x1="11.1711" y1="23.8776" x2="20.802" y2="8.49028" gradientUnits="userSpaceOnUse">
<stop stop-color="#5A0FEA"/>
<stop offset="1" stop-color="#F70685"/>
</linearGradient>
<clipPath id="clip0_529_24460">
<rect width="125" height="22" fill="white"/>
</clipPath>
</defs>
</svg>
