<svg width="56" height="56" viewBox="0 0 56 56" fill="none" xmlns="http://www.w3.org/2000/svg">
<path d="M45.373 13.9807C42.0117 10.1317 37.385 7.62604 32.3487 6.92089C31.9947 6.87072 31.6379 6.97663 31.3676 7.21354C31.0972 7.44766 30.9412 7.78769 30.9412 8.14723C30.9412 8.75762 31.3899 9.2816 31.9863 9.36521C36.443 9.98396 40.5345 12.197 43.5084 15.6001C46.499 19.0199 48.1462 23.4096 48.1462 27.9555C48.1462 32.5041 46.4906 36.8966 43.4861 40.322C40.5094 43.714 36.4235 45.9242 31.9863 46.5457C31.3899 46.6293 30.9412 47.1533 30.9412 47.7637C30.9412 48.1204 31.0972 48.4605 31.3676 48.6974C31.5934 48.8953 31.8832 49.0012 32.1759 49.0012C32.2316 49.0012 32.2901 48.9984 32.3487 48.99C37.3655 48.2849 41.9838 45.782 45.3479 41.9441C48.7454 38.07 50.6156 33.1033 50.6156 27.9582C50.6156 22.8132 48.7538 17.8521 45.373 13.9807Z" fill="url(#paint0_linear_8_2583)"/>
<path d="M32.0253 15.7035C35.919 16.1996 39.3221 18.6551 41.1309 22.27C41.3483 22.7048 41.7859 22.9584 42.2402 22.9584C42.4047 22.9584 42.5719 22.925 42.7308 22.8553L42.7531 22.8469C43.0652 22.7104 43.3021 22.4567 43.4192 22.1362C43.5362 21.8157 43.5167 21.4757 43.369 21.1719C41.1923 16.7598 37.0645 13.7692 32.3264 13.17C31.9808 13.1254 31.6324 13.2341 31.3704 13.4654C31.1028 13.7023 30.9495 14.0396 30.9495 14.3963V14.4855C30.9439 15.1015 31.4066 15.6255 32.0253 15.7035Z" fill="url(#paint1_linear_8_2583)"/>
<path d="M32.7415 21.7177C35.1747 22.8521 36.7382 25.2909 36.7382 27.9721C36.7382 31.0101 34.7008 33.7331 31.7855 34.5943C31.281 34.7421 30.941 35.1964 30.941 35.7203C30.941 36.0966 31.1138 36.4422 31.4148 36.668C31.6238 36.8241 31.8691 36.9049 32.1227 36.9049C32.237 36.9049 32.3513 36.8882 32.4656 36.8547C34.3413 36.2973 36.0275 35.1267 37.2176 33.5603C38.4468 31.941 39.0962 30.0067 39.0962 27.9721C39.0962 26.0573 38.5137 24.2178 37.4099 22.6542C36.3508 21.1519 34.8904 20.0092 33.1818 19.3431C32.839 18.5209 32.0308 17.9746 31.1417 17.9746C29.9181 17.9746 28.9231 18.9696 28.9231 20.1932C28.9231 21.4167 29.9181 22.4117 31.1417 22.4117C31.7465 22.4117 32.3206 22.1609 32.7415 21.7177Z" fill="url(#paint2_linear_8_2583)"/>
<path d="M26.398 6.79004H22.7385C18.5912 6.79004 14.9763 9.65522 13.828 12.4591C10.7036 13.2423 8.61325 16.2998 8.61325 20.1042C8.61325 20.16 8.61326 20.2185 8.61604 20.2742C6.63996 21.7013 5.41919 24.5413 5.41919 27.7271C5.41919 29.9177 6.16893 32.2032 7.37855 33.7194C7.09147 35.8627 7.40642 39.1237 9.24036 41.4008C10.1322 42.5045 11.7516 43.7977 14.4579 43.7977C14.4969 43.7977 14.5359 43.7977 14.575 43.7977C16.3309 47.5659 19.21 49.3971 23.3712 49.3971H26.1527C27.1032 49.3971 27.8752 48.5665 27.8752 47.5464V27.1919C27.8752 25.7761 27.2202 24.4689 26.1193 23.6968L25.7876 23.4627V23.5129C25.0685 23.0865 24.3272 22.8719 23.5802 22.8719C22.2229 22.8746 20.9185 23.577 19.7061 24.965C18.7111 26.1022 16.8521 26.5676 15.5895 26.0157C15.3442 24.3908 14.1903 23.067 12.6212 22.6294C12.3341 22.5485 12.0247 22.5987 11.7683 22.7632C11.5063 22.9304 11.3279 23.2063 11.2778 23.5157C11.1858 24.0954 11.5202 24.6417 12.0526 24.7866C12.9528 25.0319 13.5576 25.8095 13.5576 26.7209C13.5576 27.4567 13.1925 28.2427 12.6267 28.7193C12.2644 29.0259 12.1083 29.5248 12.2393 29.9623C12.3452 30.3191 12.6128 30.595 12.9501 30.7009C13.2706 30.7985 13.6022 30.7344 13.8642 30.5198C14.5554 29.9596 15.1045 29.1541 15.3888 28.2901C15.8264 28.4099 16.2918 28.4712 16.7684 28.4712C18.477 28.4712 20.1437 27.7326 21.2251 26.4924C22.0278 25.5726 22.8221 25.1071 23.583 25.1071C24.093 25.1071 24.6254 25.319 25.1717 25.737C25.5563 26.0325 25.7848 26.5174 25.7848 27.0358V37.1866C25.6093 37.1671 25.4364 37.156 25.2692 37.156C23.8088 37.156 22.4514 37.9419 21.5428 39.316C21.3616 39.5891 21.3003 39.932 21.37 40.2608C21.4341 40.5591 21.6041 40.8071 21.8438 40.9548C22.3204 41.2531 22.9197 41.1053 23.2374 40.6176C23.5328 40.1633 24.1962 39.3996 25.3027 39.3996C25.3055 39.3996 25.3082 39.3996 25.311 39.3996C25.573 39.3996 25.7848 39.6114 25.7848 39.8706V47.2231C25.7848 47.2844 25.743 47.343 25.6929 47.3458C20.8014 47.7499 17.8944 46.2253 16.2695 42.4069C16.3113 40.7625 16.7852 38.9871 17.5377 37.6465C18.5745 35.807 20.0768 34.7562 22.0055 34.5277C22.5434 34.4636 22.9698 34.0399 23.0172 33.5215C23.0507 33.1648 22.928 32.822 22.68 32.5795C22.4626 32.3649 22.1699 32.2617 21.8801 32.2924C19.6782 32.5321 17.7328 33.6553 16.3838 35.4614C15.6006 35.1604 14.9652 34.4023 14.7282 33.7752C14.5666 33.3431 14.1959 33.0672 13.7862 33.0672H13.6998C13.3793 33.0672 13.0866 33.2233 12.8915 33.4964C12.6881 33.7835 12.6351 34.1514 12.7494 34.4831C13.1647 35.6871 14.1402 36.802 15.2634 37.3789C14.6948 38.6443 14.338 40.0769 14.2182 41.5513C12.7828 41.5011 11.6401 40.9548 10.8123 39.9319C9.44104 38.229 9.12051 35.4391 9.51629 33.5633C9.59154 33.201 9.48563 32.8331 9.232 32.5739C8.19518 31.5148 7.4984 29.5638 7.4984 27.7215C7.4984 25.0904 8.5603 22.7464 10.1434 21.8936C10.5475 21.6762 10.7789 21.2386 10.7315 20.7815C10.7064 20.5195 10.6925 20.3021 10.6925 20.0986C10.6925 17.6933 11.8268 15.6755 13.605 14.8728C14.0565 20.1683 17.114 21.024 19.7451 21.1717C20.2858 21.2023 20.7708 20.8205 20.8739 20.2882C20.938 19.9509 20.8572 19.6053 20.6537 19.3433C20.4642 19.1036 20.1883 18.9559 19.8928 18.9392C17.2311 18.7943 15.6787 17.8745 15.6369 13.6102C16.264 11.6759 19.0623 9.02254 22.7301 9.02254H25.7124C25.7486 9.02254 25.7821 9.06435 25.7821 9.11452V14.1007C25.7821 14.5411 25.4699 14.9118 25.0713 14.9452C23.7502 15.0595 22.5741 14.5299 21.9274 13.5266C21.6794 13.1419 21.2139 12.9636 20.7959 13.0862C20.4725 13.181 20.2329 13.4123 20.1158 13.7356C19.982 14.1035 20.0378 14.5383 20.2579 14.87C20.6732 15.4915 22.273 17.501 25.3807 17.1944C26.7548 17.0607 27.8724 15.7507 27.8724 14.2735V8.36756C27.8752 7.50076 27.2119 6.79004 26.398 6.79004Z" fill="url(#paint3_linear_8_2583)"/>
<path d="M34.5504 39.3994C34.1546 39.0956 33.678 38.9284 33.1903 38.9284C31.9528 38.9284 30.9438 39.9346 30.9438 41.1749C30.9438 42.4123 31.95 43.4213 33.1903 43.4213C34.1825 43.4213 35.0493 42.7691 35.3336 41.8215C40.4926 39.6977 44.0351 34.6641 44.3946 28.9532C45.0133 28.538 45.3812 27.8607 45.3812 27.1165C45.3812 25.8929 44.3862 24.8979 43.1627 24.8979C41.9391 24.8979 40.9441 25.8929 40.9441 27.1165C40.9441 27.8523 41.3037 28.5268 41.914 28.9421C41.7412 31.247 40.9497 33.4461 39.6174 35.3079C38.3158 37.1279 36.5655 38.541 34.5504 39.3994Z" fill="url(#paint4_linear_8_2583)"/>
<defs>
<linearGradient id="paint0_linear_8_2583" x1="22.3689" y1="50.3309" x2="41.1872" y2="20.265" gradientUnits="userSpaceOnUse">
<stop stop-color="#5A0FEA"/>
<stop offset="1" stop-color="#F70685"/>
</linearGradient>
<linearGradient id="paint1_linear_8_2583" x1="18.5219" y1="47.9234" x2="37.3401" y2="17.8575" gradientUnits="userSpaceOnUse">
<stop stop-color="#5A0FEA"/>
<stop offset="1" stop-color="#F70685"/>
</linearGradient>
<linearGradient id="paint2_linear_8_2583" x1="19.3841" y1="48.4627" x2="38.2023" y2="18.3968" gradientUnits="userSpaceOnUse">
<stop stop-color="#5A0FEA"/>
<stop offset="1" stop-color="#F70685"/>
</linearGradient>
<linearGradient id="paint3_linear_8_2583" x1="11.5083" y1="43.5335" x2="30.3265" y2="13.4676" gradientUnits="userSpaceOnUse">
<stop stop-color="#5A0FEA"/>
<stop offset="1" stop-color="#F70685"/>
</linearGradient>
<linearGradient id="paint4_linear_8_2583" x1="27.1279" y1="53.3096" x2="45.9461" y2="23.2437" gradientUnits="userSpaceOnUse">
<stop stop-color="#5A0FEA"/>
<stop offset="1" stop-color="#F70685"/>
</linearGradient>
</defs>
</svg>
